<?xml version="1.0" encoding="UTF-8" standalone="no"?>
<svg
   class="icon icon-tabler icon-tabler-brand-github"
   width="18"
   height="18.92231"
   viewBox="0 0 18 18.92231"
   stroke="currentColor"
   fill="none"
   stroke-linecap="round"
   stroke-linejoin="round"
   version="1.1"
   id="svg952"
   sodipodi:docname="github.svg"
   inkscape:version="1.1.2 (0a00cf5, 2022-02-04)"
   xmlns:inkscape="http://www.inkscape.org/namespaces/inkscape"
   xmlns:sodipodi="http://sodipodi.sourceforge.net/DTD/sodipodi-0.dtd"
   xmlns="http://www.w3.org/2000/svg"
   xmlns:svg="http://www.w3.org/2000/svg">
  <defs
     id="defs956" />
  <sodipodi:namedview
     id="namedview954"
     pagecolor="#ffffff"
     bordercolor="#666666"
     borderopacity="1.0"
     inkscape:pageshadow="2"
     inkscape:pageopacity="0.0"
     inkscape:pagecheckerboard="0"
     showgrid="false"
     inkscape:zoom="25.125"
     inkscape:cx="9.0348259"
     inkscape:cy="9.4129353"
     inkscape:window-width="1366"
     inkscape:window-height="742"
     inkscape:window-x="0"
     inkscape:window-y="0"
     inkscape:window-maximized="1"
     inkscape:current-layer="svg952" />
  <path
     d="m -2.5,-2.5776893 h 24 V 21.422311 h -24 z"
     stroke="none"
     id="path948" />
  <path
     d="m 6.5,16.422311 c -4.3,1.4 -4.3,-2.5 -6,-3 m 12,5 v -3.5 c 0,-1 0.1,-1.4 -0.5,-2 2.8,-0.3 5.5,-1.4 5.5,-6.0000003 a 4.6,4.6 0 0 0 -1.3,-3.2 4.2,4.2 0 0 0 -0.1,-3.20000003 c 0,0 -1.1,-0.3 -3.5,1.30000003 a 12.3,12.3 0 0 0 -6.2,0 C 4,0.22231067 2.9,0.52231067 2.9,0.52231067 a 4.2,4.2 0 0 0 -0.1,3.20000003 4.6,4.6 0 0 0 -1.3,3.2 c 0,4.6000003 2.7,5.7000003 5.5,6.0000003 -0.6,0.6 -0.6,1.2 -0.5,2 v 3.5"
     id="path950"
     style="stroke:#fefefe;stroke-opacity:1" />
</svg>
