<?xml version="1.0" encoding="UTF-8" standalone="no"?>
<svg
   class="icon icon-tabler icon-tabler-brand-twitter"
   width="20.999838"
   height="17.022278"
   viewBox="0 0 20.999838 17.022278"
   stroke="currentColor"
   fill="none"
   stroke-linecap="round"
   stroke-linejoin="round"
   version="1.1"
   id="svg1112"
   sodipodi:docname="twitter.svg"
   inkscape:version="1.1.2 (0a00cf5, 2022-02-04)"
   xmlns:inkscape="http://www.inkscape.org/namespaces/inkscape"
   xmlns:sodipodi="http://sodipodi.sourceforge.net/DTD/sodipodi-0.dtd"
   xmlns="http://www.w3.org/2000/svg"
   xmlns:svg="http://www.w3.org/2000/svg">
  <defs
     id="defs1116" />
  <sodipodi:namedview
     id="namedview1114"
     pagecolor="#ffffff"
     bordercolor="#666666"
     borderopacity="1.0"
     inkscape:pageshadow="2"
     inkscape:pageopacity="0.0"
     inkscape:pagecheckerboard="0"
     showgrid="false"
     inkscape:zoom="25.125"
     inkscape:cx="10.029851"
     inkscape:cy="8.5771144"
     inkscape:window-width="1366"
     inkscape:window-height="742"
     inkscape:window-x="0"
     inkscape:window-y="0"
     inkscape:window-maximized="1"
     inkscape:current-layer="svg1112" />
  <path
     d="M -1.5001612,-3.4085664 H 22.499839 V 20.591434 H -1.5001612 Z"
     stroke="none"
     id="path1108" />
  <path
     d="m 20.499839,0.60143364 c -1,0.48999996 -1.98,0.68899996 -3,0.98999996 -1.121,-1.26499996 -2.783,-1.33499996 -4.38,-0.73699996 -1.597,0.59799996 -2.643,2.05999996 -2.62,3.73699996 v 1 c -3.2450002,0.083 -6.1350002,-1.395 -8.0000002,-4 0,0 -4.182,7.433 4,11.0000004 -1.872,1.247 -3.739,2.088 -5.99999998,2 3.30799998,1.803 6.91299998,2.423 10.03400018,1.517 3.58,-1.04 6.522,-3.723 7.651,-7.7420004 a 13.84,13.84 0 0 0 0.497,-3.753 c -0.002,-0.249 1.51,-2.772 1.818,-4.01299996 z"
     id="path1110"
     style="stroke:#ffffff;stroke-opacity:1" />
</svg>
